<?xml version="1.0" encoding="UTF-8" standalone="no"?>
<svg
   width="256"
   height="256"
   viewBox="0 0 23.272727 23.272727"
   version="1.1"
   id="svg3"
   sodipodi:docname="logo.svg"
   inkscape:version="1.4.2 (ebf0e940d0, 2025-05-08)"
   inkscape:export-filename="logo.png"
   inkscape:export-xdpi="96"
   inkscape:export-ydpi="96"
   xmlns:inkscape="http://www.inkscape.org/namespaces/inkscape"
   xmlns:sodipodi="http://sodipodi.sourceforge.net/DTD/sodipodi-0.dtd"
   xmlns:xlink="http://www.w3.org/1999/xlink"
   xmlns="http://www.w3.org/2000/svg"
   xmlns:svg="http://www.w3.org/2000/svg">
  <defs
     id="defs3">
    <linearGradient
       id="linearGradient6"
       inkscape:collect="always">
      <stop
         style="stop-color:#8ec0ee;stop-opacity:1;"
         offset="0"
         id="stop6" />
      <stop
         style="stop-color:#a7d0ef;stop-opacity:1;"
         offset="1"
         id="stop7" />
    </linearGradient>
    <linearGradient
       id="linearGradient4"
       inkscape:collect="always">
      <stop
         style="stop-color:#e4f4f7;stop-opacity:1;"
         offset="0"
         id="stop4" />
      <stop
         style="stop-color:#8ec0ee;stop-opacity:1;"
         offset="1"
         id="stop5" />
    </linearGradient>
    <linearGradient
       inkscape:collect="always"
       xlink:href="#linearGradient4"
       id="linearGradient5"
       x1="11.730047"
       y1="6.3222246"
       x2="11.730047"
       y2="22.808514"
       gradientUnits="userSpaceOnUse"
       gradientTransform="translate(-0.1727273,-1.8636363)" />
    <linearGradient
       inkscape:collect="always"
       xlink:href="#linearGradient6"
       id="linearGradient7"
       x1="5.0365171"
       y1="13.494928"
       x2="1.4550636"
       y2="13.494928"
       gradientUnits="userSpaceOnUse"
       gradientTransform="translate(-0.34836448,-2.0788303)" />
    <linearGradient
       inkscape:collect="always"
       xlink:href="#linearGradient6"
       id="linearGradient8"
       gradientUnits="userSpaceOnUse"
       gradientTransform="rotate(166.22579,12.244174,13.454273)"
       x1="5.0365171"
       y1="13.494928"
       x2="4.3880081"
       y2="13.251177" />
    <linearGradient
       inkscape:collect="always"
       xlink:href="#linearGradient6"
       id="linearGradient1"
       gradientUnits="userSpaceOnUse"
       gradientTransform="rotate(90,12.230495,12.833075)"
       x1="5.0365171"
       y1="13.494928"
       x2="1.4550636"
       y2="13.494928" />
  </defs>
  <sodipodi:namedview
     id="namedview3"
     pagecolor="#ffffff"
     bordercolor="#111111"
     borderopacity="1"
     inkscape:showpageshadow="0"
     inkscape:pageopacity="0"
     inkscape:pagecheckerboard="1"
     inkscape:deskcolor="#d1d1d1"
     inkscape:zoom="3.1193722"
     inkscape:cx="90.883672"
     inkscape:cy="135.44392"
     inkscape:window-width="1920"
     inkscape:window-height="1056"
     inkscape:window-x="1280"
     inkscape:window-y="1104"
     inkscape:window-maximized="1"
     inkscape:current-layer="svg3"
     showgrid="true">
    <inkscape:grid
       id="grid1"
       units="px"
       originx="0"
       originy="0"
       spacingx="1.4545454"
       spacingy="1.4545454"
       empcolor="#3f3fff"
       empopacity="0.25098039"
       color="#3f3fff"
       opacity="0.1254902"
       empspacing="5"
       enabled="true"
       visible="true" />
  </sodipodi:namedview>
  <path
     style="fill:url(#linearGradient7);fill-opacity:1;stroke:none;stroke-width:1px;stroke-linecap:butt;stroke-linejoin:miter;stroke-opacity:1"
     d="M 4.1601044,9.456572 3.6516355,9.421172 1.803503,10.656709 1.6351066,12.627195 3.3582767,13.399542 4.1854094,13.230161 Z"
     id="path5" />
  <path
     style="fill:url(#linearGradient1);fill-opacity:1;stroke:none;stroke-width:1px;stroke-linecap:butt;stroke-linejoin:miter;stroke-opacity:1"
     d="M 13.528181,5.1110586 13.56358,4.6025897 12.328045,2.7544572 10.378166,3.142463 9.5852114,4.3092309 9.7545919,5.1363636 Z"
     id="path5-2"
     sodipodi:nodetypes="ccccccc" />
  <path
     style="fill:url(#linearGradient8);fill-opacity:1;stroke:none;stroke-width:1px;stroke-linecap:butt;stroke-linejoin:miter;stroke-opacity:1"
     d="m 19.13789,13.862398 1.578689,-0.472951 0.952182,-1.626702 -0.581118,-1.53992 -0.726076,-0.464103 -1.070318,0.05837 z"
     id="path5-7"
     sodipodi:nodetypes="ccccccc" />
  <path
     style="fill:url(#linearGradient5);fill-opacity:1;stroke:none;stroke-width:1px;stroke-linecap:butt;stroke-linejoin:miter;stroke-opacity:1"
     d="m 5.2062727,6.0453636 -1.0461683,3.4112084 0.5360424,6.380042 1.6470805,1.458459 5.6086307,0.307477 1.789767,1.46891 2.599571,0.975454 0.01208,-2.408547 2.095,-0.997 0.724481,-5.298003 -0.879,-5.2980003 L 14.842685,5.143342 6.8272727,5.136362 Z"
     id="path4"
     sodipodi:nodetypes="cccccccccccccc" />
  <g
     fill="none"
     stroke="currentColor"
     stroke-linecap="round"
     stroke-linejoin="round"
     stroke-width="1.5"
     color="currentColor"
     id="g3"
     style="stroke-width:0.909091;stroke-dasharray:none"
     transform="translate(-0.32724308,-1.8636363)">
    <path
       d="m 3.9788786,15.284807 c -2.6666655,0 -2.6666655,-4 0,-4 m 16.0000004,4 c 2.666666,0 2.666666,-4 0,-4"
       id="path1"
       style="stroke-width:0.909091;stroke-dasharray:none"
       sodipodi:nodetypes="cccc" />
    <path
       d="m 9.9487885,6.8910904 c 0,-2.666666 4.0000025,-2.666666 4.0000025,0"
       id="path1-1"
       style="stroke-width:0.909091;stroke-dasharray:none"
       sodipodi:nodetypes="cc" />
    <path
       d="m 13.5,7 h -3 C 7.672,7 6.257,7 5.379,7.909 4.501,8.818 4.5,10.281 4.5,13.207 c 0,2.926 0,4.389 0.879,5.298 0.878,0.909 2.293,0.909 5.121,0.909 h 1.025 c 0.792,0 1.071,0.163 1.617,0.757 0.603,0.657 1.537,1.534 2.382,1.738 1.201,0.29 1.336,-0.111 1.068,-1.256 -0.076,-0.326 -0.267,-0.847 -0.066,-1.151 0.113,-0.17 0.3,-0.212 0.675,-0.296 0.591,-0.132 1.079,-0.348 1.42,-0.701 0.879,-0.91 0.879,-2.372 0.879,-5.298 0,-2.926 0,-4.389 -0.879,-5.298 C 17.743,7 16.328,7 13.5,7"
       id="path2"
       style="stroke-width:0.909091;stroke-dasharray:none"
       sodipodi:nodetypes="cssscssccccccscc" />
    <path
       d="m 9.5,15 c 0.57,0.607 1.478,1 2.5,1 1.022,0 1.93,-0.393 2.5,-1 M 9.009,11 H 9 m 6.009,0 H 15"
       id="path3"
       style="stroke-width:0.909091;stroke-dasharray:none" />
  </g>
</svg>
