<?xml version="1.0" encoding="UTF-8" standalone="no"?>
<svg
   width="256"
   height="256"
   viewBox="0 0 23.272727 23.272727"
   version="1.1"
   id="svg3"
   sodipodi:docname="logo.svg"
   inkscape:version="1.4 (e7c3feb100, 2024-10-09)"
   inkscape:export-filename="logo.png"
   inkscape:export-xdpi="96"
   inkscape:export-ydpi="96"
   xmlns:inkscape="http://www.inkscape.org/namespaces/inkscape"
   xmlns:sodipodi="http://sodipodi.sourceforge.net/DTD/sodipodi-0.dtd"
   xmlns:xlink="http://www.w3.org/1999/xlink"
   xmlns="http://www.w3.org/2000/svg"
   xmlns:svg="http://www.w3.org/2000/svg">
  <defs
     id="defs3">
    <linearGradient
       id="linearGradient6"
       inkscape:collect="always">
      <stop
         style="stop-color:#8ec0ee;stop-opacity:1;"
         offset="0"
         id="stop6" />
      <stop
         style="stop-color:#a7d0ef;stop-opacity:1;"
         offset="1"
         id="stop7" />
    </linearGradient>
    <linearGradient
       id="linearGradient4"
       inkscape:collect="always">
      <stop
         style="stop-color:#8ec0ee;stop-opacity:1;"
         offset="0"
         id="stop4" />
      <stop
         style="stop-color:#304fbf;stop-opacity:1;"
         offset="1"
         id="stop5" />
    </linearGradient>
    <linearGradient
       inkscape:collect="always"
       xlink:href="#linearGradient4"
       id="linearGradient5"
       x1="11.730047"
       y1="6.3222246"
       x2="11.730047"
       y2="22.808514"
       gradientUnits="userSpaceOnUse" />
    <linearGradient
       inkscape:collect="always"
       xlink:href="#linearGradient6"
       id="linearGradient7"
       x1="5.0365171"
       y1="13.494928"
       x2="1.4550636"
       y2="13.494928"
       gradientUnits="userSpaceOnUse"
       gradientTransform="translate(-0.0211214,-0.215194)" />
    <linearGradient
       inkscape:collect="always"
       xlink:href="#linearGradient6"
       id="linearGradient8"
       gradientUnits="userSpaceOnUse"
       gradientTransform="rotate(166.22579,12.295252,14.405858)"
       x1="5.0365171"
       y1="13.494928"
       x2="4.3880081"
       y2="13.251177" />
  </defs>
  <sodipodi:namedview
     id="namedview3"
     pagecolor="#ffffff"
     bordercolor="#111111"
     borderopacity="1"
     inkscape:showpageshadow="0"
     inkscape:pageopacity="0"
     inkscape:pagecheckerboard="1"
     inkscape:deskcolor="#d1d1d1"
     inkscape:zoom="0.77984304"
     inkscape:cx="180.16446"
     inkscape:cy="69.885858"
     inkscape:window-width="1920"
     inkscape:window-height="1056"
     inkscape:window-x="1280"
     inkscape:window-y="1104"
     inkscape:window-maximized="1"
     inkscape:current-layer="svg3" />
  <ellipse
     style="fill:#a7d0ef;fill-opacity:1;stroke:none;stroke-width:16;stroke-linejoin:bevel;stroke-miterlimit:5.6;paint-order:fill markers stroke"
     id="path9"
     cx="7"
     cy="2.8642268"
     rx="0.65171194"
     ry="0.8642267" />
  <ellipse
     style="fill:#a7d0ef;fill-opacity:1;stroke:none;stroke-width:16;stroke-linejoin:bevel;stroke-miterlimit:5.6;paint-order:fill markers stroke"
     id="path9-1"
     cx="17"
     cy="2.8642268"
     rx="0.65171194"
     ry="0.8642267" />
  <path
     style="fill:url(#linearGradient7);fill-opacity:1;stroke:none;stroke-width:1px;stroke-linecap:butt;stroke-linejoin:miter;stroke-opacity:1"
     d="m 4.4873475,11.320207 -0.5084689,-0.0354 -1.8481325,1.235535 -0.1683964,1.970486 1.7231701,0.772347 0.8271327,-0.169381 z"
     id="path5" />
  <path
     style="fill:url(#linearGradient8);fill-opacity:1;stroke:none;stroke-width:1px;stroke-linecap:butt;stroke-linejoin:miter;stroke-opacity:1"
     d="m 19.465132,15.726031 1.578689,-0.472951 0.952182,-1.626702 -0.581118,-1.53992 -0.726076,-0.464101 -1.070318,0.05837 z"
     id="path5-7"
     sodipodi:nodetypes="ccccccc" />
  <path
     style="fill:url(#linearGradient5);fill-opacity:1;stroke:none;stroke-width:1px;stroke-linecap:butt;stroke-linejoin:miter;stroke-opacity:1"
     d="M 5.379,7.909 4,11.5 l 0.8688741,6.200247 1.6470805,1.458459 5.6086284,0.307477 1.789767,1.46891 2.599571,0.975454 L 16.526,19.502 18.621,18.505 19.465132,15.726031 18.621,7.909 15.01541,7.0069784 7,7 Z"
     id="path4" />
  <g
     fill="none"
     stroke="currentColor"
     stroke-linecap="round"
     stroke-linejoin="round"
     stroke-width="1.5"
     color="currentColor"
     id="g3">
    <path
       d="m 4,15.5 a 2,2 0 1 1 0,-4 m 16,4 a 2,2 0 1 0 0,-4 M 7,7 V 4 M 17,7 V 4"
       id="path1" />
    <circle
       cx="7"
       cy="3"
       r="1"
       id="circle1" />
    <circle
       cx="17"
       cy="3"
       r="1"
       id="circle2" />
    <path
       d="m 13.5,7 h -3 C 7.672,7 6.257,7 5.379,7.909 4.501,8.818 4.5,10.281 4.5,13.207 c 0,2.926 0,4.389 0.879,5.298 0.878,0.909 2.293,0.909 5.121,0.909 h 1.025 c 0.792,0 1.071,0.163 1.617,0.757 0.603,0.657 1.537,1.534 2.382,1.738 1.201,0.29 1.336,-0.111 1.068,-1.256 -0.076,-0.326 -0.267,-0.847 -0.066,-1.151 0.113,-0.17 0.3,-0.212 0.675,-0.296 0.591,-0.132 1.079,-0.348 1.42,-0.701 0.879,-0.91 0.879,-2.372 0.879,-5.298 0,-2.926 0,-4.389 -0.879,-5.298 C 17.743,7 16.328,7 13.5,7"
       id="path2" />
    <path
       d="m 9.5,15 c 0.57,0.607 1.478,1 2.5,1 1.022,0 1.93,-0.393 2.5,-1 M 9.009,11 H 9 m 6.009,0 H 15"
       id="path3" />
  </g>
</svg>
