<?xml version="1.0" encoding="UTF-8" standalone="no"?>
<svg
   width="24"
   height="24"
   viewBox="0 0 24 24"
   version="1.1"
   id="svg3"
   sodipodi:docname="logo.svg"
   inkscape:version="1.4 (e7c3feb100, 2024-10-09)"
   inkscape:export-filename="logo.png"
   inkscape:export-xdpi="96"
   inkscape:export-ydpi="96"
   xmlns:inkscape="http://www.inkscape.org/namespaces/inkscape"
   xmlns:sodipodi="http://sodipodi.sourceforge.net/DTD/sodipodi-0.dtd"
   xmlns:xlink="http://www.w3.org/1999/xlink"
   xmlns="http://www.w3.org/2000/svg"
   xmlns:svg="http://www.w3.org/2000/svg">
  <defs
     id="defs3">
    <linearGradient
       id="linearGradient6"
       inkscape:collect="always">
      <stop
         style="stop-color:#8ec0ee;stop-opacity:1;"
         offset="0"
         id="stop6" />
      <stop
         style="stop-color:#a7d0ef;stop-opacity:1;"
         offset="1"
         id="stop7" />
    </linearGradient>
    <linearGradient
       id="linearGradient4"
       inkscape:collect="always">
      <stop
         style="stop-color:#8ec0ee;stop-opacity:1;"
         offset="0"
         id="stop4" />
      <stop
         style="stop-color:#304fbf;stop-opacity:1;"
         offset="1"
         id="stop5" />
    </linearGradient>
    <linearGradient
       inkscape:collect="always"
       xlink:href="#linearGradient4"
       id="linearGradient5"
       x1="11.730047"
       y1="6.3222246"
       x2="11.730047"
       y2="22.808514"
       gradientUnits="userSpaceOnUse" />
    <linearGradient
       inkscape:collect="always"
       xlink:href="#linearGradient6"
       id="linearGradient7"
       x1="5.0365171"
       y1="13.494928"
       x2="1.4550636"
       y2="13.494928"
       gradientUnits="userSpaceOnUse"
       gradientTransform="translate(-0.0211214,-0.215194)" />
    <linearGradient
       inkscape:collect="always"
       xlink:href="#linearGradient6"
       id="linearGradient8"
       gradientUnits="userSpaceOnUse"
       gradientTransform="rotate(166.22579,12.295252,14.405858)"
       x1="5.0365171"
       y1="13.494928"
       x2="4.3880081"
       y2="13.251177" />
  </defs>
  <sodipodi:namedview
     id="namedview3"
     pagecolor="#ffffff"
     bordercolor="#111111"
     borderopacity="1"
     inkscape:showpageshadow="0"
     inkscape:pageopacity="0"
     inkscape:pagecheckerboard="1"
     inkscape:deskcolor="#d1d1d1"
     inkscape:zoom="35.291667"
     inkscape:cx="12"
     inkscape:cy="12"
     inkscape:window-width="1920"
     inkscape:window-height="1056"
     inkscape:window-x="1280"
     inkscape:window-y="1104"
     inkscape:window-maximized="1"
     inkscape:current-layer="svg3" />
  <ellipse
     style="fill:#a7d0ef;fill-opacity:1;stroke:none;stroke-width:16;stroke-linejoin:bevel;stroke-miterlimit:5.6;paint-order:fill markers stroke"
     id="path9"
     cx="7"
     cy="2.8642268"
     rx="0.65171194"
     ry="0.8642267" />
  <ellipse
     style="fill:#a7d0ef;fill-opacity:1;stroke:none;stroke-width:16;stroke-linejoin:bevel;stroke-miterlimit:5.6;paint-order:fill markers stroke"
     id="path9-1"
     cx="17"
     cy="2.8642268"
     rx="0.65171194"
     ry="0.8642267" />
  <path
     style="fill:url(#linearGradient7);fill-opacity:1;stroke:none;stroke-width:1px;stroke-linecap:butt;stroke-linejoin:miter;stroke-opacity:1"
     d="m 4.4873475,11.320207 -0.5084689,-0.0354 -1.8481325,1.235535 -0.1683964,1.970486 1.7231701,0.772347 0.8271327,-0.169381 z"
     id="path5" />
  <path
     style="fill:url(#linearGradient8);fill-opacity:1;stroke:none;stroke-width:1px;stroke-linecap:butt;stroke-linejoin:miter;stroke-opacity:1"
     d="m 19.465132,15.726031 1.578689,-0.472951 0.952182,-1.626702 -0.581118,-1.53992 -0.726076,-0.464101 -1.070318,0.05837 z"
     id="path5-7"
     sodipodi:nodetypes="ccccccc" />
  <path
     style="fill:url(#linearGradient5);stroke:#000000;stroke-width:1px;stroke-linecap:butt;stroke-linejoin:miter;stroke-opacity:1;fill-opacity:1"
     d="M 5.379,7.909 4,11.5 l 0.8688741,6.200247 1.6470805,1.458459 5.6086284,0.307477 1.789767,1.46891 2.599571,0.975454 L 16.526,19.502 18.621,18.505 19.465132,15.726031 18.621,7.909 15.01541,7.0069784 7,7 Z"
     id="path4" />
  <g
     fill="none"
     stroke="currentColor"
     stroke-linecap="round"
     stroke-linejoin="round"
     stroke-width="1.5"
     color="currentColor"
     id="g3">
    <path
       d="M4 15.5a2 2 0 1 1 0-4m16 4a2 2 0 1 0 0-4M7 7V4m10 3V4"
       id="path1" />
    <circle
       cx="7"
       cy="3"
       r="1"
       id="circle1" />
    <circle
       cx="17"
       cy="3"
       r="1"
       id="circle2" />
    <path
       d="M13.5 7h-3c-2.828 0-4.243 0-5.121.909S4.5 10.281 4.5 13.207s0 4.389.879 5.298c.878.909 2.293.909 5.121.909h1.025c.792 0 1.071.163 1.617.757c.603.657 1.537 1.534 2.382 1.738c1.201.29 1.336-.111 1.068-1.256c-.076-.326-.267-.847-.066-1.151c.113-.17.3-.212.675-.296c.591-.132 1.079-.348 1.42-.701c.879-.91.879-2.372.879-5.298s0-4.389-.879-5.298C17.743 7 16.328 7 13.5 7"
       id="path2" />
    <path
       d="M9.5 15c.57.607 1.478 1 2.5 1s1.93-.393 2.5-1m-5.491-4H9m6.009 0H15"
       id="path3" />
  </g>
</svg>
