<?xml version="1.0" encoding="UTF-8" standalone="no"?>
<svg
   width="256"
   height="256"
   viewBox="0 0 23.272727 23.272727"
   version="1.1"
   id="svg3"
   sodipodi:docname="logo.svg"
   inkscape:version="1.4.2 (ebf0e940d0, 2025-05-08)"
   inkscape:export-filename="logo.png"
   inkscape:export-xdpi="96"
   inkscape:export-ydpi="96"
   xmlns:inkscape="http://www.inkscape.org/namespaces/inkscape"
   xmlns:sodipodi="http://sodipodi.sourceforge.net/DTD/sodipodi-0.dtd"
   xmlns:xlink="http://www.w3.org/1999/xlink"
   xmlns="http://www.w3.org/2000/svg"
   xmlns:svg="http://www.w3.org/2000/svg">
  <defs
     id="defs3">
    <linearGradient
       id="linearGradient6"
       inkscape:collect="always">
      <stop
         style="stop-color:#8ec0ee;stop-opacity:1;"
         offset="0"
         id="stop6" />
      <stop
         style="stop-color:#a7d0ef;stop-opacity:1;"
         offset="1"
         id="stop7" />
    </linearGradient>
    <linearGradient
       id="linearGradient4"
       inkscape:collect="always">
      <stop
         style="stop-color:#e4f4f7;stop-opacity:1;"
         offset="0"
         id="stop4" />
      <stop
         style="stop-color:#8ec0ee;stop-opacity:1;"
         offset="1"
         id="stop5" />
    </linearGradient>
    <linearGradient
       inkscape:collect="always"
       xlink:href="#linearGradient4"
       id="linearGradient5"
       x1="11.730047"
       y1="6.3222246"
       x2="11.730047"
       y2="22.808514"
       gradientUnits="userSpaceOnUse"
       gradientTransform="translate(-0.1727273,-1.4999999)" />
    <linearGradient
       inkscape:collect="always"
       xlink:href="#linearGradient6"
       id="linearGradient7"
       x1="5.0365171"
       y1="13.494928"
       x2="1.4550636"
       y2="13.494928"
       gradientUnits="userSpaceOnUse"
       gradientTransform="translate(-0.34836448,-1.7151939)" />
    <linearGradient
       inkscape:collect="always"
       xlink:href="#linearGradient6"
       id="linearGradient8"
       gradientUnits="userSpaceOnUse"
       gradientTransform="rotate(166.22579,12.222214,13.636091)"
       x1="5.0365171"
       y1="13.494928"
       x2="4.3880081"
       y2="13.251177" />
    <linearGradient
       inkscape:collect="always"
       xlink:href="#linearGradient6"
       id="linearGradient1"
       gradientUnits="userSpaceOnUse"
       gradientTransform="rotate(90,12.048677,13.014893)"
       x1="5.0365171"
       y1="13.494928"
       x2="1.4550636"
       y2="13.494928" />
    <linearGradient
       inkscape:collect="always"
       xlink:href="#linearGradient6"
       id="linearGradient2"
       gradientUnits="userSpaceOnUse"
       gradientTransform="rotate(-90,10.320747,12.029315)"
       x1="5.0365171"
       y1="13.494928"
       x2="1.4550636"
       y2="13.494928" />
  </defs>
  <sodipodi:namedview
     id="namedview3"
     pagecolor="#ffffff"
     bordercolor="#111111"
     borderopacity="1"
     inkscape:showpageshadow="0"
     inkscape:pageopacity="0"
     inkscape:pagecheckerboard="1"
     inkscape:deskcolor="#d1d1d1"
     inkscape:zoom="1"
     inkscape:cx="130.5"
     inkscape:cy="192.5"
     inkscape:window-width="3840"
     inkscape:window-height="2126"
     inkscape:window-x="2160"
     inkscape:window-y="2194"
     inkscape:window-maximized="1"
     inkscape:current-layer="svg3"
     showgrid="true">
    <inkscape:grid
       id="grid1"
       units="px"
       originx="0"
       originy="0"
       spacingx="1.4545454"
       spacingy="1.4545454"
       empcolor="#3f3fff"
       empopacity="0.25098039"
       color="#3f3fff"
       opacity="0.1254902"
       empspacing="5"
       enabled="true"
       visible="true" />
  </sodipodi:namedview>
  <path
     style="fill:url(#linearGradient7);fill-opacity:1;stroke:none;stroke-width:1px;stroke-linecap:butt;stroke-linejoin:miter;stroke-opacity:1"
     d="M 4.1601044,9.8202084 3.6516355,9.7848084 1.803503,11.020345 1.6351066,12.990831 3.3582767,13.763178 4.1854094,13.593797 Z"
     id="path5" />
  <path
     style="fill:url(#linearGradient1);fill-opacity:1;stroke:none;stroke-width:1px;stroke-linecap:butt;stroke-linejoin:miter;stroke-opacity:1"
     d="M 13.528181,5.474695 13.56358,4.9662261 12.328045,3.1180936 10.378166,3.5060994 9.5852114,4.6728673 9.7545919,5.5 Z"
     id="path5-2"
     sodipodi:nodetypes="ccccccc" />
  <path
     style="fill:url(#linearGradient8);fill-opacity:1;stroke:none;stroke-width:1px;stroke-linecap:butt;stroke-linejoin:miter;stroke-opacity:1"
     d="m 19.13789,14.226034 1.578689,-0.472951 0.952182,-1.626702 -0.581118,-1.53992 -0.726076,-0.464103 -1.070318,0.05837 z"
     id="path5-7"
     sodipodi:nodetypes="ccccccc" />
  <path
     style="fill:url(#linearGradient5);fill-opacity:1;stroke:none;stroke-width:1px;stroke-linecap:butt;stroke-linejoin:miter;stroke-opacity:1"
     d="m 5.2062727,6.409 -1.0461683,3.4112084 0.5360424,6.3800416 1.6470805,1.458459 5.6086307,0.307477 4.401418,0.03582 2.095,-0.997 0.724481,-5.298003 -0.879,-5.2979999 -3.451072,-0.9020247 -8.0154123,-0.00698 z"
     id="path4"
     sodipodi:nodetypes="cccccccccccc" />
  <path
     d="m 3.6516355,13.784807 c -2.66666548,0 -2.66666548,-3.9999999 0,-3.9999999 M 19.651636,13.784807 c 2.666666,0 2.666666,-3.9999999 0,-3.9999999"
     id="path1"
     style="fill:none;stroke:#000000;stroke-width:0.909091;stroke-linecap:round;stroke-linejoin:round;stroke-dasharray:none"
     sodipodi:nodetypes="cccc" />
  <path
     d="m 9.6215454,5.3910905 c 0,-2.666666 4.0000026,-2.666666 4.0000026,0"
     id="path1-1"
     style="fill:none;stroke:#000000;stroke-width:0.909091;stroke-linecap:round;stroke-linejoin:round;stroke-dasharray:none"
     sodipodi:nodetypes="cc" />
  <path
     style="fill:url(#linearGradient2);fill-opacity:1;stroke:none;stroke-width:1px;stroke-linecap:butt;stroke-linejoin:miter;stroke-opacity:1"
     d="m 9.8268198,17.841584 -0.0354,0.508468 1.2355352,1.848133 1.949879,-0.388006 0.792955,-1.166768 -0.16938,-0.827132 z"
     id="path5-2-5"
     sodipodi:nodetypes="ccccccc" />
  <path
     d="m 13.733456,17.925188 c 0,2.666666 -4.0000034,2.666666 -4.0000034,0"
     id="path1-1-6"
     style="fill:none;stroke:#000000;stroke-width:0.909091;stroke-linecap:round;stroke-linejoin:round;stroke-dasharray:none"
     sodipodi:nodetypes="cc" />
  <path
     d="m 13.172757,5.5000001 h -3 c -2.8280001,0 -4.2430001,0 -5.1210001,0.909 -0.878,0.909 -0.879,2.372 -0.879,5.2979999 0,2.926 0,4.389 0.879,5.298 0.878,0.909 2.2930449,0.924944 5.1210001,0.909 3.691119,-0.02081 4.125366,0.04825 6.701,-0.208 0.591,-0.132 1.079,-0.348 1.42,-0.701 0.879,-0.91 0.879,-2.372 0.879,-5.298 0,-2.9259999 0,-4.3889999 -0.879,-5.2979999 -0.878,-0.909 -2.293,-0.909 -5.121,-0.909"
     id="path2"
     style="fill:none;stroke:#000000;stroke-width:0.909091;stroke-linecap:round;stroke-linejoin:round;stroke-dasharray:none"
     sodipodi:nodetypes="cssscsccscc" />
  <ellipse
     style="fill:#f9f9f9;stroke:none;stroke-width:0.97057;stroke-linecap:round;stroke-linejoin:round;stroke-miterlimit:2"
     id="path6"
     cx="8.727272"
     cy="9.6034737"
     rx="1.005447"
     ry="0.87620097" />
  <ellipse
     style="fill:#f9f9f9;stroke:none;stroke-width:0.97057;stroke-linecap:round;stroke-linejoin:round;stroke-miterlimit:2"
     id="path6-0"
     cx="14.691232"
     cy="9.6034737"
     rx="1.005447"
     ry="0.87620097" />
  <path
     d="m 9.1727569,13.5 c 0.57,0.607 1.4780001,1 2.5000001,1 1.022,0 1.93,-0.393 2.5,-1 M 8.6817569,9.5000001 h -0.009 m 6.0090001,0 h -0.009"
     id="path3"
     style="fill:none;stroke:#000000;stroke-width:0.909091;stroke-linecap:round;stroke-linejoin:round;stroke-dasharray:none" />
</svg>
